<?xml version="1.0" standalone="no"?>
<!DOCTYPE svg PUBLIC "-//W3C//DTD SVG 20010904//EN"
 "http://www.w3.org/TR/2001/REC-SVG-20010904/DTD/svg10.dtd">
<svg version="1.0" xmlns="http://www.w3.org/2000/svg"
 width="980.000000pt" height="980.000000pt" viewBox="0 0 980.000000 980.000000"
 preserveAspectRatio="xMidYMid meet">
<metadata>
Created by potrace 1.16, written by Peter Selinger 2001-2019
</metadata>
<g transform="translate(0.000000,980.000000) scale(0.100000,-0.100000)"
fill="#000000" stroke="none">
<path d="M4540 9645 c-699 -53 -1353 -251 -1975 -597 -895 -499 -1627 -1313
-2034 -2265 -184 -432 -296 -853 -358 -1353 -25 -208 -26 -822 0 -1030 98
-796 341 -1468 764 -2107 346 -524 787 -969 1305 -1316 185 -124 234 -153 433
-260 1275 -678 2821 -732 4143 -143 1330 593 2315 1759 2673 3164 108 425 159
880 145 1297 -7 224 -8 239 -32 440 -143 1235 -780 2374 -1764 3157 -924 735
-2121 1103 -3300 1013z m3038 -2234 c-1 -4 -489 -511 -1083 -1124 -594 -614
-1081 -1120 -1082 -1124 -2 -5 151 -195 339 -423 189 -229 671 -814 1072
-1300 401 -487 736 -893 744 -902 14 -17 -19 -18 -689 -18 l-704 1 -730 886
c-401 487 -743 903 -760 924 -16 21 -33 38 -36 38 -4 1 -364 -369 -800 -821
-437 -453 -843 -874 -903 -935 l-109 -112 -323 -3 c-178 -2 -324 -1 -324 1 0
3 76 82 168 175 93 94 247 252 343 351 96 99 505 522 909 939 404 417 736 761
738 765 1 3 -479 590 -1068 1304 -588 713 -1070 1299 -1070 1302 0 3 315 5
699 5 l699 0 748 -907 c411 -500 749 -910 751 -913 2 -2 50 44 106 104 56 59
467 485 912 946 l810 838 315 4 c173 2 319 4 323 6 5 1 7 -2 5 -7z"/>
<path d="M3218 6893 l-238 -3 1638 -1965 1637 -1965 283 0 283 0 -23 29 c-13
16 -747 903 -1633 1970 l-1610 1940 -50 -2 c-27 -1 -157 -3 -287 -4z"/>
</g>
</svg>

